# xmcd
#
# Track frame offsets: 
#        150
#        21871
#        41243
#        66612
#        91239
#        111999
#        136023
#        159381
#        181509
#        199289
#        221402
#        237383
#        255775
#        274709
#        288174
#        303921
#
# Disc length: 4254 seconds
#
# Revision: 0
# Processed by: cddbd v1.5.2PL0 Copyright (c) Steve Scherf et al.
# Submitted via: ExactAudioCopyFreeDBPlugin 1.0
#
DISCID=dc109c10
DTITLE=Zeremony and Backyard Fire - Acoustic Sessions
DYEAR=2019
DGENRE=Blues
TTITLE0=Zeremony - Vintage Boogie
TTITLE1=Zeremony - She Sang a Song to Me
TTITLE2=Zeremony - You're Evil
TTITLE3=Zeremony - Oak Leaves
TTITLE4=Zeremony - Secret Shelf
TTITLE5=Zeremony - Devil Man
TTITLE6=Zeremony - Into the Fire
TTITLE7=Zeremony - Where Have You Been
TTITLE8=Zeremony - I Want You Tonight
TTITLE9=Zeremony - I Got This Feeling
TTITLE10=Backyard Fire - Disconnection
TTITLE11=Backyard Fire - My Favourite Drug
TTITLE12=Backyard Fire - Shadow Man
TTITLE13=Backyard Fire - Night on Fire
TTITLE14=Backyard Fire - Useless Melancholy
TTITLE15=Backyard Fire - Read Between Your Lines
EXTD=
EXTT0=
EXTT1=
EXTT2=
EXTT3=
EXTT4=
EXTT5=
EXTT6=
EXTT7=
EXTT8=
EXTT9=
EXTT10=
EXTT11=
EXTT12=
EXTT13=
EXTT14=
EXTT15=
PLAYORDER=
